0 Untitled Model
0 Name:  robot_junior
0 Author:  
0 CustomBrick
0 FlexibleBrickControlPointUnitLength -1
0 NumOfBricks:  460
1 0 0.000000 -70.000000 44.000000 0.000000 0.000000 -1.000000 0.000000 1.000000 0.000000 1.000000 0.000000 0.000000 39367pb02.dat
1 0 9.999980 -50.000040 44.000000 1.000000 0.000000 0.000000 0.000000 1.000000 0.000000 0.000000 0.000000 1.000000 2780.dat
1 71 60.000800 -69.999940 44.000010 0.000000 0.999998 0.000000 0.999994 0.000000 0.000000 0.000000 0.000000 -1.000000 54696.dat
1 0 79.999980 -40.000060 -96.000060 0.000000 0.000000 -1.000000 -1.000000 0.000000 0.000000 0.000000 1.000000 0.000000 2780.dat
1 0 79.999950 -40.000080 64.000000 0.000000 0.000000 -1.000000 -1.000000 0.000000 0.000000 0.000000 1.000000 0.000000 2780.dat
1 0 179.999800 -30.002080 3.999980 0.999998 0.000000 0.000000 0.000000 0.999994 0.000000 0.000000 0.000000 1.000000 39790.dat
1 0 279.999600 -40.000020 -96.000020 0.000000 0.000000 -0.999998 -0.999994 0.000000 0.000000 0.000000 1.000000 0.000000 2780.dat
1 0 279.999600 -40.000020 -136.000000 0.000000 0.000000 -0.999998 -0.999994 0.000000 0.000000 0.000000 1.000000 0.000000 2780.dat
1 0 279.999600 -40.000010 64.000000 0.000000 0.000000 -0.999998 -0.999994 0.000000 0.000000 0.000000 1.000000 0.000000 2780.dat
1 0 79.999980 -40.000080 -136.000100 0.000000 0.000000 -0.999998 -0.999994 0.000000 0.000000 0.000000 1.000000 0.000000 2780.dat
1 0 259.999600 -30.002080 154.000100 0.000000 0.000000 -0.999998 0.000000 0.999994 0.000000 1.000000 0.000000 0.000000 2780.dat
1 1 219.999700 -30.002100 144.000100 0.000000 0.000000 0.999998 0.000000 0.999994 0.000000 -1.000000 0.000000 0.000000 6558.dat
1 0 269.999600 -30.002080 84.000070 -0.999998 0.000000 -0.000001 0.000000 0.999994 0.000000 0.000001 0.000000 -1.000000 2780.dat
1 0 269.999600 -30.002080 44.000030 0.999998 0.000000 0.000001 0.000000 0.999994 0.000000 -0.000001 0.000000 1.000000 2780.dat
1 1 139.999800 -30.002080 144.000100 0.000000 0.000000 0.999998 0.000000 0.999994 0.000000 -1.000000 0.000000 0.000000 6558.dat
1 0 99.999890 -30.002070 114.000000 0.000000 0.000000 -0.999998 0.000000 0.999994 0.000000 1.000000 0.000000 0.000000 2780.dat
1 0 90.000000 -30.000060 83.999950 0.999998 0.000000 0.000001 0.000000 0.999994 0.000000 -0.000001 0.000000 1.000000 2780.dat
1 0 269.999600 -30.002100 -35.999980 0.999998 0.000000 0.000001 0.000000 0.999994 0.000000 -0.000001 0.000000 1.000000 2780.dat
1 0 89.999950 -30.002080 43.999960 0.999998 0.000000 0.000001 0.000000 0.999994 0.000000 -0.000001 0.000000 1.000004 2780.dat
1 0 89.999950 -30.002080 -36.000070 0.999998 0.000000 0.000001 0.000000 0.999994 0.000000 -0.000001 0.000000 1.000000 2780.dat
1 0 259.999600 -170.002200 83.999980 0.000000 1.000000 0.000000 0.000000 0.000000 1.000000 1.000000 0.000000 0.000000 32278.dat
1 0 259.999600 -110.001600 44.000040 0.000000 0.999998 0.000000 0.000000 0.000000 0.999994 1.000000 0.000000 0.000000 40490.dat
1 0 259.999600 -110.001600 -35.999960 0.000000 0.999998 0.000000 0.000000 0.000000 0.999994 1.000000 0.000000 0.000000 40490.dat
1 0 99.999950 -170.000100 84.000050 0.000000 -1.000000 0.000000 0.000000 0.000000 1.000000 -1.000000 0.000000 0.000000 32278.dat
1 0 119.999900 -90.001720 104.000100 -0.999998 0.000000 0.000000 0.000000 0.000000 0.999994 0.000000 1.000000 0.000000 32140.dat
1 0 179.999700 -30.002080 124.000000 0.000000 0.000000 -0.999998 0.999994 0.000000 0.000000 0.000000 -1.000000 0.000000 40490.dat
1 71 319.999500 -30.002080 164.000100 0.000000 0.000000 -0.999998 0.999994 0.000000 0.000000 0.000000 -1.000000 0.000000 41239.dat
1 15 99.999970 -90.001740 43.999960 0.000000 0.999998 0.000000 0.000000 0.000000 0.999994 1.000000 0.000000 0.000000 32524.dat
1 15 99.999920 -90.001720 -36.000060 0.000000 0.999998 0.000000 0.000000 0.000000 0.999994 1.000000 0.000000 0.000000 32524.dat
1 0 79.999950 -30.002080 164.000100 0.000000 0.000000 -0.999998 -0.999994 0.000000 0.000000 0.000000 1.000000 0.000000 32525.dat
1 15 59.999980 -30.002080 184.000100 0.000000 0.000000 0.999998 0.000000 0.999994 0.000000 -1.000000 0.000000 0.000000 15100.dat
1 15 -19.999860 -30.002070 184.000100 0.000000 0.000000 0.999998 0.000000 0.999994 0.000000 -1.000000 0.000000 0.000000 15100.dat
1 15 79.999950 -30.002080 184.000100 0.000000 0.000000 0.999998 0.000000 0.999994 0.000000 -1.000000 0.000000 0.000000 15100.dat
1 15 279.999600 -30.002100 184.000100 0.000000 0.000000 0.999998 0.000000 0.999994 0.000000 -1.000000 0.000000 0.000000 15100.dat
1 15 299.999600 -30.002100 184.000200 0.000000 0.000000 0.999999 0.000000 0.999994 0.000000 -1.000001 0.000000 0.000000 15100.dat
1 15 379.999400 -30.002080 184.000100 0.000000 0.000000 0.999998 0.000000 0.999994 0.000000 -1.000000 0.000000 0.000000 15100.dat
1 1 379.999500 -50.001960 184.000500 0.000000 0.000000 1.000001 -0.999994 0.000000 0.000000 0.000000 -1.000003 0.000000 6558.dat
1 1 299.999500 -50.001980 184.000500 0.000000 0.000000 1.000002 -0.999994 0.000000 0.000000 0.000000 -1.000004 0.000000 6558.dat
1 1 279.999300 -50.001980 184.000400 0.000000 0.000000 1.000004 -0.999994 0.000000 0.000000 0.000000 -1.000006 0.000000 6558.dat
1 1 79.999840 -50.001960 184.000400 0.000000 0.000000 1.000000 -0.999994 0.000000 0.000000 0.000000 -1.000002 0.000000 6558.dat
1 1 -19.999860 -50.001950 184.000100 0.000000 0.000000 0.999998 -0.999994 0.000000 0.000000 0.000000 -1.000000 0.000000 6558.dat
1 1 59.999590 -50.001960 184.000400 0.000000 0.000000 1.000003 -0.999994 0.000000 0.000000 0.000000 -1.000005 0.000000 6558.dat
1 0 119.999800 -30.002070 114.000100 0.000000 0.000000 0.999998 0.000000 -0.999994 0.000000 1.000000 0.000000 0.000001 2780.dat
1 1 159.999800 -30.002080 174.000100 0.000000 0.000000 -0.999998 0.000000 0.999994 0.000000 1.000000 0.000000 0.000000 43093.dat
1 0 239.999600 -30.002080 114.000100 0.000000 0.000000 -0.999998 0.000000 -0.999996 0.000000 -1.000001 0.000000 0.000000 2780.dat
1 1 199.999700 -30.002100 174.000100 0.000000 0.000000 -0.999998 0.000000 0.999994 0.000000 1.000000 0.000000 0.000000 43093.dat
1 15 179.999800 -30.002080 184.000100 0.000000 0.999998 0.000000 0.000000 0.000000 -0.999994 -1.000000 0.000000 0.000000 32184.dat
1 0 239.999600 -90.001690 103.999900 1.000001 0.000000 0.000000 0.000000 0.000000 0.999991 0.000000 -0.999999 0.000000 32140.dat
1 0 179.999800 -50.000020 -136.000100 0.000000 0.000000 -0.999998 0.000000 0.999994 0.000000 1.000000 0.000000 0.000000 32278.dat
1 71 299.999500 -69.999840 44.000010 0.000000 -0.999998 0.000000 -0.999994 0.000000 0.000000 0.000000 0.000000 -1.000000 54696.dat
1 0 40.000120 -50.002000 184.000000 0.000000 0.000000 -0.999998 0.000000 -0.999994 0.000000 -1.000000 0.000000 0.000000 32525.dat
1 0 298.999300 -50.393320 183.510400 0.000000 -0.000001 0.999998 -0.000001 0.999994 0.000001 -1.000000 -0.000001 0.000000 32278.dat
1 70 20.000150 -46.282020 184.000000 0.000000 0.000000 -0.999998 0.999994 0.000000 0.000000 0.000000 -1.000000 0.000000 24316.dat
1 0 20.000150 -28.282120 204.000000 0.000000 -0.999998 0.000000 0.999994 0.000000 0.000000 0.000000 0.000000 1.000000 32039.dat
1 70 119.999900 -48.042020 184.000000 0.000000 0.000000 -0.999998 0.999994 0.000000 0.000000 0.000000 -1.000000 0.000000 24316.dat
1 0 319.999500 -40.000080 -136.000000 0.000000 0.000000 -0.999998 -0.999994 0.000000 0.000000 0.000000 1.000000 0.000000 2780.dat
1 0 299.999600 -40.000080 -136.000000 0.000000 0.000000 -0.999998 -0.999994 0.000000 0.000000 0.000000 1.000000 0.000000 2780.dat
1 0 60.000020 -40.000080 -136.000100 0.000000 0.000000 -0.999998 -0.999994 0.000000 0.000000 0.000000 1.000000 0.000000 2780.dat
1 0 40.000060 -40.000080 -136.000100 0.000000 0.000000 -0.999998 -0.999994 0.000000 0.000000 0.000000 1.000000 0.000000 2780.dat
1 1 418.999100 -50.393180 183.510400 0.000000 0.000000 0.999998 0.999994 0.000000 0.000000 0.000000 1.000000 0.000000 6558.dat
1 1 438.999100 -50.393180 183.510400 0.000000 0.000000 0.999998 0.999994 0.000000 0.000000 0.000000 1.000000 0.000000 6558.dat
1 0 119.999900 -30.042140 203.999600 0.000000 -0.999998 0.000000 0.999994 0.000000 0.000000 0.000000 0.000000 1.000000 32039.dat
1 0 -39.999740 -40.002040 183.999900 0.000000 0.000000 0.999998 0.999994 0.000000 0.000000 0.000000 1.000000 0.000000 2780.dat
1 70 20.000140 -28.282110 244.000100 0.000000 0.000000 -0.999998 0.000000 0.999994 0.000000 1.000000 0.000000 0.000000 15462.dat
1 0 -59.999700 -40.002050 183.999900 0.000000 0.000000 0.999998 0.999994 0.000000 0.000000 0.000000 1.000000 0.000000 2780.dat
1 0 20.000140 -48.282000 282.000100 0.000000 0.999998 0.000000 0.999994 0.000000 0.000000 0.000000 0.000000 -1.000000 45590.dat
1 0 -79.999660 -30.002100 263.999900 0.999998 0.000000 0.000000 0.000000 -0.999994 0.000000 0.000000 0.000000 -1.000000 32526.dat
1 3 40.000070 -30.000140 -196.000100 0.999998 0.000000 0.000000 0.000000 0.999994 0.000000 0.000000 0.000000 1.000000 32140.dat
1 3 319.999500 -30.000150 -196.000100 -0.999998 0.000000 0.000000 0.000000 -0.999994 0.000000 0.000000 0.000000 1.000000 32140.dat
1 0 319.999500 -20.000200 -176.000100 0.000000 0.000000 -0.999998 -0.999994 0.000000 0.000000 0.000000 1.000000 0.000000 6628.dat
1 0 40.000060 -20.000200 -176.000100 0.000000 0.000000 -0.999998 -0.999994 0.000000 0.000000 0.000000 1.000000 0.000000 6628.dat
1 0 -79.999660 -20.002160 263.999900 0.000000 0.000000 0.999998 -0.999994 0.000000 0.000000 0.000000 -1.000000 0.000000 6628.dat
1 0 438.999100 -30.393300 263.510400 -0.999998 0.000000 0.000000 0.000000 0.999994 0.000000 0.000000 0.000000 -1.000000 32526.dat
1 0 438.999100 -20.393360 263.510400 0.000000 0.000000 0.999998 -0.999994 0.000000 0.000000 0.000000 -1.000000 0.000000 6628.dat
1 70 120.000000 -30.042120 244.000000 0.000000 0.000000 -0.999998 0.000000 0.999994 0.000000 1.000000 0.000000 0.000000 15462.dat
1 70 338.999200 -51.833270 183.510400 0.000000 0.000000 -0.999998 0.999994 0.000000 0.000000 0.000000 -1.000000 0.000000 24316.dat
1 0 120.000000 -50.042020 282.000000 0.000000 0.999998 0.000000 0.999994 0.000000 0.000000 0.000000 0.000000 -1.000000 45590.dat
1 0 338.999200 -33.833360 203.510400 0.000000 -0.999998 0.000000 0.999994 0.000000 0.000000 0.000000 0.000000 1.000000 32039.dat
1 70 338.999200 -33.833360 243.510400 0.000000 0.000000 -0.999998 0.000000 0.999994 0.000000 1.000000 0.000000 0.000000 15462.dat
1 0 338.999200 -53.833260 281.510400 0.000000 0.999998 0.000000 0.999994 0.000000 0.000000 0.000000 0.000000 -1.000000 45590.dat
1 0 -39.999740 -61.001920 183.999900 0.000000 0.000000 -0.999998 0.999994 0.000000 0.000000 0.000000 -1.000000 0.000000 2780.dat
1 0 198.999500 -60.393360 183.510400 0.000000 0.000000 -0.999998 0.999994 0.000000 0.000000 0.000000 -1.000000 0.000000 2780.dat
1 0 158.999600 -60.393400 183.510400 0.000000 0.000000 -0.999998 0.999994 0.000000 0.000000 0.000000 -1.000000 0.000000 2780.dat
1 0 90.000000 -50.000080 83.999950 0.999998 0.000000 0.000001 0.000000 0.999994 0.000000 -0.000001 0.000000 1.000000 2780.dat
1 0 299.999500 -49.999980 -106.000000 0.000000 0.000000 -0.999998 0.000000 0.999994 0.000000 1.000000 0.000000 0.000000 2780.dat
1 0 349.999400 -50.000000 44.000020 -0.999998 0.000000 0.000000 0.000000 0.999994 0.000000 0.000000 0.000000 -1.000000 2780.dat
1 0 359.999400 -69.999840 44.000030 0.000000 0.000000 -0.999998 0.000000 0.999994 0.000000 1.000000 0.000000 0.000000 39367pb02.dat
1 0 299.999500 -69.999840 -116.000000 -0.999998 0.000000 0.000000 0.000000 0.000000 0.999994 0.000000 1.000000 0.000000 39793.dat
1 0 80.000060 -109.999700 83.999950 0.000000 0.999998 0.000000 0.000000 0.000000 0.999994 1.000000 0.000000 0.000000 32140.dat
1 71 59.999590 -70.001840 184.000400 0.000000 0.000000 -0.999998 0.000000 0.999994 0.000000 1.000000 0.000000 0.000000 40490.dat
1 71 299.999600 -70.001860 184.000500 0.000000 0.000000 -0.999998 0.000000 0.999994 0.000000 1.000000 0.000000 0.000000 40490.dat
1 0 418.999100 -70.393060 123.510400 0.999998 0.000000 0.000000 0.000000 0.999994 0.000000 0.000000 0.000000 1.000000 32140.dat
1 0 -20.000260 -80.001780 184.000400 0.000000 0.000000 -0.999998 0.999994 0.000000 0.000000 0.000000 -1.000000 0.000000 2780.dat
1 0 339.999500 -80.001800 184.000500 0.000000 0.000000 -0.999998 0.999994 0.000000 0.000000 0.000000 -1.000000 0.000000 2780.dat
1 0 178.999600 -90.393180 183.510400 0.000000 0.000000 0.999998 -0.999994 0.000000 0.000000 0.000000 -1.000000 0.000000 39793.dat
1 1 418.999100 -80.393000 123.510400 0.000000 0.000000 -0.999998 0.999994 0.000000 0.000000 0.000000 -1.000000 0.000000 43093.dat
1 0 418.999100 -80.393000 163.510400 0.000000 0.999998 0.000000 -0.999994 0.000000 0.000000 0.000000 0.000000 1.000000 2780.dat
1 72 -10.000080 -70.000000 44.000030 -1.000000 0.000000 0.000000 0.000000 1.000000 0.000000 0.000000 0.000000 -1.000000 87083.dat
1 70 398.997600 -70.394060 43.510420 0.999998 0.000000 0.000000 0.000000 0.999994 0.000000 0.000000 0.000000 1.000000 24316.dat
1 0 299.999500 -69.999840 -126.000000 0.000000 0.000000 -0.999998 0.000000 0.999994 0.000000 1.000000 0.000000 0.000000 2780.dat
1 0 -39.999930 -70.000030 44.000020 0.000000 1.000000 0.000000 0.000000 0.000000 1.000000 1.000000 0.000000 0.000000 39793.dat
1 15 418.997300 -110.393600 23.510430 -0.000001 -0.999994 0.000000 0.999989 0.000000 0.000000 0.000000 0.000000 1.000000 71709.dat
1 1 -39.999930 -50.000050 13.999950 0.000000 0.000000 1.000000 0.000000 1.000000 0.000000 -1.000000 0.000000 0.000000 43093.dat
1 1 -39.999940 -50.000040 74.000030 0.000001 0.000000 -1.000000 0.000000 1.000000 0.000000 1.000000 0.000000 0.000001 43093.dat
1 0 -39.999940 -210.000000 84.000030 1.000000 0.000000 0.000000 0.000000 0.000000 -1.000000 0.000000 1.000000 0.000000 32009.dat
1 0 -39.999920 -210.000000 3.999960 1.000000 0.000000 0.000000 0.000000 0.000000 -1.000000 0.000000 1.000000 0.000000 32009.dat
1 0 -39.999920 -110.000100 -16.000030 -1.000001 0.000000 0.000000 0.000000 0.000000 1.000001 0.000000 1.000000 0.000000 32524.dat
1 0 -39.999920 -50.000020 -26.000040 0.000000 0.000000 1.000000 0.000000 1.000000 0.000000 -1.000000 0.000000 0.000000 2780.dat
1 0 -39.999920 -70.000020 -56.000040 0.000000 1.000000 0.000000 0.000000 0.000000 1.000000 1.000000 0.000000 0.000000 39793.dat
1 0 -40.000010 -50.000020 -86.000090 0.000000 0.000000 1.000000 0.000000 1.000000 0.000000 -1.000000 0.000000 0.000000 2780.dat
1 0 -40.000000 -70.000020 -116.000000 0.000000 1.000000 0.000000 0.000000 0.000000 1.000000 1.000000 0.000000 0.000000 39793.dat
1 0 -30.000020 -50.000020 -116.000000 -1.000000 0.000000 0.000000 0.000000 -1.000000 0.000000 0.000000 0.000000 1.000000 2780.dat
1 0 0.000010 -70.000000 -116.000000 1.000000 0.000000 0.000000 0.000000 0.000000 1.000000 0.000000 -1.000000 0.000000 39793.dat
1 0 29.999960 -50.000020 -116.000000 1.000000 0.000000 0.000000 0.000000 0.000000 -1.000000 0.000000 1.000000 0.000000 2780.dat
1 0 59.999800 -70.000020 -116.000000 1.000000 0.000000 0.000000 0.000000 0.000000 1.000000 0.000000 -1.000000 0.000000 39793.dat
1 0 396.999400 -69.999860 44.000000 0.999998 0.000000 0.000000 0.000000 0.999994 0.000000 0.000000 0.000000 1.000000 62462.dat
1 0 -19.999970 -70.000020 44.000040 0.000000 1.000000 0.000000 1.000001 0.000000 0.000000 0.000000 0.000000 -1.000000 18654.dat
1 3 299.999600 -69.999840 -136.000000 0.999998 0.000000 0.000000 0.000000 0.000000 -0.999994 0.000000 1.000000 0.000000 18654.dat
1 0 -39.999920 -70.000000 -6.000060 0.000000 0.000000 1.000000 0.000000 1.000000 0.000000 -1.000000 0.000000 0.000000 2780.dat
1 0 59.999810 -70.000020 -126.000000 0.000000 0.000000 -1.000000 0.000000 1.000000 0.000000 1.000000 0.000000 0.000000 2780.dat
1 3 59.999810 -70.000020 -136.000100 1.000000 0.000000 0.000000 0.000000 0.000000 -1.000000 0.000000 1.000000 0.000000 18654.dat
1 71 59.999590 -90.001720 184.000400 0.000000 0.000000 -0.999998 0.000000 0.999994 0.000000 1.000000 0.000000 0.000000 40490.dat
1 0 39.999920 -100.000100 64.000000 0.000000 0.000000 1.000000 -1.000000 0.000000 0.000000 0.000000 -1.000000 0.000000 2780.dat
1 1 78.999860 -110.390500 63.510010 0.000000 -0.999998 0.000000 -0.999994 0.000000 0.000000 0.000000 0.000000 -1.000000 6558.dat
1 0 39.999920 -100.000100 23.999920 0.000000 0.000000 1.000000 -1.000000 0.000000 0.000000 0.000000 -1.000000 0.000000 2780.dat
1 71 299.999600 -90.001740 184.000500 0.000000 0.000000 -0.999998 0.000000 0.999994 0.000000 1.000000 0.000000 0.000000 40490.dat
1 1 278.999500 -110.390500 63.509980 0.000000 -0.999998 0.000000 -0.999994 0.000000 0.000000 0.000000 0.000000 -1.000000 6558.dat
1 1 319.999500 -100.001700 184.000500 0.000000 0.000000 0.999998 -0.999994 0.000000 0.000000 0.000000 -1.000000 0.000000 43093.dat
1 1 78.999880 -110.390500 -96.490010 0.000000 -0.999998 0.000000 -0.999994 0.000000 0.000000 0.000000 0.000000 -1.000000 6558.dat
1 1 359.999400 -100.001700 184.000500 0.000000 0.000000 0.999998 -0.999994 0.000000 0.000000 0.000000 -1.000000 0.000000 43093.dat
1 1 278.999500 -110.390400 -96.490010 0.000000 -0.999998 0.000000 -0.999994 0.000000 0.000000 0.000000 0.000000 -1.000000 6558.dat
1 0 418.999100 -110.392800 143.510400 0.000000 -0.999998 0.000000 0.999994 0.000000 0.000000 0.000000 0.000000 1.000000 39793.dat
1 0 9.999980 -90.000080 44.000000 1.000000 0.000000 0.000000 0.000000 1.000000 0.000000 0.000000 0.000000 1.000000 2780.dat
1 0 -39.999930 -90.000100 13.999950 0.000000 0.000000 1.000000 0.000000 1.000000 0.000000 -1.000000 0.000000 0.000000 2780.dat
1 0 -39.999940 -90.000100 74.000030 0.000000 0.000000 1.000000 0.000000 1.000000 0.000000 -1.000000 0.000000 0.000000 2780.dat
1 0 -39.999920 -90.000080 -26.000040 0.000000 0.000000 1.000000 0.000000 1.000000 0.000000 -1.000000 0.000000 0.000000 2780.dat
1 0 -39.999920 -90.000080 -86.000090 0.000000 0.000000 1.000000 0.000000 1.000000 0.000000 -1.000000 0.000000 0.000000 2780.dat
1 0 59.999800 -90.000080 -106.000000 0.000000 0.000000 -1.000000 0.000000 1.000000 0.000000 1.000000 0.000000 0.000000 2780.dat
1 0 29.999960 -90.000080 -116.000000 1.000000 0.000000 0.000000 0.000000 0.000000 -1.000000 0.000000 1.000000 0.000000 2780.dat
1 0 -30.000020 -90.000080 -116.000000 -1.000000 0.000000 0.000000 0.000000 1.000000 0.000000 0.000000 0.000000 -1.000000 2780.dat
1 70 179.999900 -90.000980 153.850100 0.000000 0.000000 -0.999998 0.000000 0.999994 0.000000 1.000000 0.000000 0.000000 87083.dat
1 0 299.999500 -89.999720 -106.000000 0.000000 0.000000 -0.999998 0.000000 0.999994 0.000000 1.000000 0.000000 0.000000 2780.dat
1 0 349.999400 -89.999730 44.000020 -0.999998 0.000000 0.000000 0.000000 0.999994 0.000000 0.000000 0.000000 -1.000000 2780.dat
1 322 179.999900 -90.000960 84.000060 0.999998 0.000000 0.000000 0.000000 0.000000 -0.999994 0.000000 1.000000 0.000000 54675.dat
1 0 179.999900 -90.000960 146.940100 -0.999998 0.000000 0.000000 0.000000 -0.999994 0.000000 0.000000 0.000000 1.000000 32270.dat
1 0 179.999900 -90.000960 125.380100 -0.999998 0.000000 0.000000 0.000000 -0.999994 0.000000 0.000000 0.000000 1.000000 32270.dat
1 14 179.999900 -90.000980 24.000060 0.000000 -0.707106 0.707106 0.000000 0.707103 0.707103 -1.000000 0.000000 0.000000 4519.dat
1 71 179.999900 -90.000980 167.950100 0.999998 0.000000 0.000000 0.000000 0.999994 0.000000 0.000000 0.000000 1.000000 3713.dat
1 72 179.999900 -90.000980 30.830070 0.707106 -0.707106 0.000000 0.707103 0.707103 0.000000 0.000000 0.000000 1.000000 10928.dat
1 0 198.999500 -120.393000 183.510400 0.000000 0.000000 -0.999998 0.999994 0.000000 0.000000 0.000000 -1.000000 0.000000 2780.dat
1 3 278.999600 -110.390500 -16.490020 0.999998 0.000000 0.000000 0.000000 0.999994 0.000000 0.000000 0.000000 1.000000 40490.dat
1 0 339.999600 -100.001700 184.000400 0.000000 0.000000 0.999996 0.000000 0.999994 0.000000 -0.999998 0.000000 0.000000 87408.dat
1 0 39.999920 -130.000000 44.000000 0.000000 1.000000 0.000000 1.000000 0.000000 0.000000 0.000000 0.000000 -1.000000 39793.dat
1 71 -39.999940 -109.657100 123.299000 0.000000 0.999998 0.000000 -0.999993 0.000000 0.000000 0.000000 0.000000 1.000000 55615.dat
1 3 78.999860 -110.390500 -16.490000 0.999998 0.000000 0.000000 0.000000 0.999994 0.000000 0.000000 0.000000 1.000000 40490.dat
1 0 -59.999900 -109.657100 103.298900 0.000000 0.000000 -0.999998 -0.999993 0.000000 -0.000001 0.000000 1.000000 0.000000 39793.dat
1 0 -39.999940 -99.656520 163.298000 0.000000 -0.999998 0.000000 -1.000002 0.000000 0.000000 0.000000 0.000000 -1.000009 2780.dat
1 0 -39.999940 -99.656570 123.298000 -0.000001 -0.999998 0.000000 -1.000005 0.000000 0.000000 0.000000 0.000000 -1.000008 2780.dat
1 0 -40.001220 -69.656200 143.297700 0.000000 0.000000 0.999995 0.999990 0.000000 0.000000 0.000000 0.999995 0.000000 37308c01.dat
1 1 -80.000050 -69.657420 103.298900 0.000000 -1.000002 0.000000 0.999993 -0.000001 -0.000001 0.000001 0.000000 1.000000 6558.dat
1 0 -80.000040 -49.657480 -36.701150 -1.000002 -0.000001 0.000000 -0.000001 0.999993 0.000001 0.000000 0.000001 -1.000000 32278.dat
1 0 -80.000100 -59.657280 -176.701000 0.000001 -1.000002 0.000000 -0.999993 -0.000001 0.000001 -0.000001 0.000000 -1.000000 2780.dat
1 0 -80.000040 -59.657380 23.298640 0.000001 -1.000002 0.000000 -0.999993 -0.000001 0.000001 -0.000001 0.000000 -1.000000 2780.dat
1 0 -80.000040 -59.657400 3.298760 0.000001 -1.000002 0.000000 -0.999993 -0.000001 0.000001 -0.000001 0.000000 -1.000000 2780.dat
1 0 -80.000110 -59.657330 -156.700900 0.000001 -1.000002 0.000000 -0.999993 -0.000001 0.000001 -0.000001 0.000000 -1.000000 2780.dat
1 0 -80.000110 -59.657360 -116.701200 0.000001 -1.000002 0.000000 -0.999993 -0.000001 0.000001 -0.000001 0.000000 -1.000000 2780.dat
1 0 -29.999840 -49.656760 143.297500 -0.999998 0.000000 0.000000 0.000000 0.999839 -0.017452 0.000000 -0.017452 -0.999847 2780.dat
1 0 -0.000020 -69.659420 142.948700 -0.999998 0.000000 0.000000 0.000000 0.017452 0.999839 0.000000 0.999847 -0.017451 39793.dat
1 0 -40.000030 -79.657320 103.298900 0.000000 -1.000002 0.000000 -0.999993 0.000000 0.000001 -0.000001 0.000000 -1.000000 2780.dat
1 0 -80.000210 -69.657200 -56.701040 -0.999998 -0.000001 0.000000 -0.000001 0.999993 0.000001 0.000000 0.000001 -1.000000 32524.dat
1 0 -80.000100 -69.657220 -176.700900 -1.000002 -0.000001 0.000000 -0.000001 0.999993 0.000001 0.000000 0.000001 -1.000000 32316.dat
1 0 -80.000040 -69.657360 23.298660 1.000002 -0.000001 0.000000 0.000001 0.999993 -0.000001 0.000000 0.000001 1.000000 32526.dat
1 0 -80.000100 -59.657310 -196.701000 0.000001 -1.000002 0.000000 -0.999993 -0.000001 0.000001 -0.000001 0.000000 -1.000000 2780.dat
1 0 -80.000010 -59.657250 -216.701100 0.000001 -1.000002 0.000000 -0.999993 -0.000001 0.000001 -0.000001 0.000000 -1.000000 2780.dat
1 0 -80.000320 -49.657340 -216.701500 -1.000002 -0.000001 0.000000 -0.000001 0.999993 0.000001 0.000000 0.000001 -1.000000 32523.dat
1 0 -80.000000 -39.657430 -236.700900 0.000001 -0.999998 0.000000 -0.999993 -0.000001 0.000001 -0.000001 0.000000 -1.000000 6628.dat
1 0 -19.999860 -69.484880 152.947100 0.000000 0.000000 -0.999998 0.017452 0.999839 0.000000 0.999847 -0.017452 0.000000 2780.dat
1 0 19.999850 -69.484880 152.947100 0.000000 0.000000 -0.999998 0.017452 0.999839 0.000000 0.999847 -0.017452 0.000000 2780.dat
1 0 99.999390 -69.310350 162.945600 0.000000 0.000000 -0.999998 0.999842 -0.017452 0.000000 -0.017452 -0.999848 0.000000 41239.dat
1 0 119.999300 -69.484860 152.947100 0.000000 0.999998 0.000000 0.017452 0.000000 0.999839 0.999847 0.000000 -0.017452 2780.dat
1 0 39.999900 -69.484860 152.947200 0.000000 0.999998 0.000000 0.017452 0.000000 0.999839 0.999847 0.000000 -0.017452 2780.dat
1 1 139.999300 -69.484860 152.947100 0.000000 0.000000 0.999998 -0.017452 0.999842 0.000000 -0.999848 -0.017452 0.000000 43093.dat
1 71 79.999340 -69.659380 142.948500 0.000000 0.000000 0.999998 0.999839 0.017452 0.000000 -0.017452 0.999847 0.000000 32316.dat
1 0 -29.999840 -89.656200 143.297600 -0.999998 0.000000 0.000000 0.000000 0.999839 -0.017452 0.000000 -0.017452 -0.999847 2780.dat
1 0 -19.999860 -109.308000 143.295700 0.000000 0.999998 0.000000 0.999839 0.000000 -0.017452 -0.017452 0.000000 -0.999847 32523.dat
1 0 129.999900 -110.000900 104.000300 0.999998 0.000000 0.000001 0.000000 -0.999994 0.000000 0.000001 0.000000 -1.000000 2780.dat
1 0 130.000000 -110.000800 64.000140 0.999998 0.000000 0.000001 0.000000 -0.999994 0.000000 0.000001 0.000000 -1.000000 2780.dat
1 1 90.000000 -110.000100 84.000050 -0.999998 0.000000 -0.000001 0.000000 0.999994 0.000000 0.000001 0.000000 -1.000000 43093.dat
1 71 339.999400 -142.231400 184.000600 0.000000 0.000000 -0.999998 0.999994 0.000000 0.000000 0.000000 -1.000000 -0.000002 3705.dat
1 0 119.999900 -150.000700 84.000060 0.000000 0.999998 0.000000 0.000000 0.000000 0.999994 1.000000 0.000000 0.000000 60484.dat
1 0 339.999800 -128.441900 184.000600 -0.716910 -0.697164 0.000000 0.000000 0.000000 -0.999994 0.697165 -0.716911 0.000000 32270.dat
1 1 418.999100 -150.392600 123.510400 0.000000 0.000000 -0.999998 0.999994 0.000000 0.000000 0.000000 -1.000000 0.000000 6558.dat
1 1 418.999100 -150.392600 163.510400 0.000000 0.000000 -0.999998 0.999994 0.000000 0.000000 0.000000 -1.000000 0.000000 6558.dat
1 71 278.999500 -150.390300 3.510040 -0.999998 0.000000 0.000000 0.000000 0.000000 0.999994 0.000000 1.000000 0.000000 48989.dat
1 0 178.999700 -130.392400 3.510020 0.999998 0.000000 0.000000 0.000000 0.999994 0.000000 0.000000 0.000000 1.000000 39790.dat
1 0 188.999500 -130.393000 183.510400 0.000000 0.000000 -0.999998 0.000000 0.999994 0.000000 1.000000 0.000000 0.000000 43857.dat
1 0 238.999600 -140.390300 143.510100 0.000000 0.000000 -0.999998 0.999994 0.000000 0.000000 0.000000 -1.000000 0.000000 2780.dat
1 0 178.999600 -150.392800 183.510400 0.000000 -0.999998 0.000000 0.999994 0.000000 0.000000 0.000000 0.000000 1.000000 15100.dat
1 1 98.999880 -129.392400 -156.490000 0.000000 0.999998 0.000000 0.000000 0.000000 -0.999994 -1.000000 0.000000 0.000000 6558.dat
1 0 218.999600 -129.392300 -146.490100 0.000000 0.000000 -0.999998 0.000000 0.999994 0.000000 1.000000 0.000000 0.000000 2780.dat
1 1 258.999600 -129.392300 -156.490100 0.000000 0.999998 0.000000 0.000000 0.000000 -0.999994 -1.000000 0.000000 0.000000 6558.dat
1 0 238.999600 -169.392100 -156.490000 0.999998 0.000000 0.000000 0.000000 0.000000 0.999994 0.000000 -1.000000 0.000000 60484.dat
1 0 178.999700 -129.392400 -176.490000 0.000000 0.000000 -0.999998 -0.999994 0.000000 0.000000 0.000000 1.000000 0.000000 40490.dat
1 0 118.999800 -169.392200 -156.490000 0.999998 0.000000 0.000000 0.000000 0.000000 0.999994 0.000000 -1.000000 0.000000 60484.dat
1 1 78.999880 -130.392400 -116.490000 -0.999998 0.000000 0.000000 0.000000 -0.999994 0.000000 0.000000 0.000000 1.000000 6558.dat
1 0 89.000030 -130.390300 83.510060 0.999998 0.000000 0.000001 0.000000 0.999994 0.000000 -0.000001 0.000000 1.000000 2780.dat
1 0 88.999840 -130.392400 43.509980 0.999998 0.000000 0.000000 0.000000 0.999994 0.000000 0.000000 0.000000 1.000000 2780.dat
1 0 88.999850 -130.392400 -36.490030 0.999998 0.000000 0.000000 0.000000 0.999994 0.000000 0.000000 0.000000 1.000000 2780.dat
1 1 78.999870 -130.392400 -76.490020 -0.999998 0.000000 0.000000 0.000000 -0.999994 0.000000 0.000000 0.000000 1.000000 6558.dat
1 0 138.999800 -130.392400 -146.490100 0.000000 0.000000 -0.999998 0.000000 0.999994 0.000000 1.000000 0.000000 0.000000 2780.dat
1 1 278.999500 -130.392400 -76.489990 0.999998 0.000000 0.000000 0.000000 -0.999994 0.000000 0.000000 0.000000 -1.000000 6558.dat
1 1 278.999500 -130.392400 -116.490000 0.999998 0.000000 0.000000 0.000000 -0.999994 0.000000 0.000000 0.000000 -1.000000 6558.dat
1 15 298.999500 -130.392400 -96.489970 0.000000 0.999998 0.000000 -0.999994 0.000000 0.000000 0.000000 0.000000 1.000000 32523.dat
1 0 258.999600 -210.391900 -76.489990 0.000000 -0.999998 0.000000 0.000000 0.000000 0.999994 -1.000000 0.000000 0.000000 32526.dat
1 15 58.999900 -130.392400 -96.490010 0.000000 -0.999998 0.000000 -0.999994 0.000000 0.000000 0.000000 0.000000 -1.000000 32523.dat
1 0 178.999700 -130.392400 -96.489990 0.999998 0.000000 0.000000 0.000000 0.999994 0.000000 0.000000 0.000000 1.000000 71709.dat
1 0 98.999850 -210.391800 -76.489990 0.000000 -0.999998 0.000000 0.000000 0.000000 0.999994 -1.000000 0.000000 0.000000 32526.dat
1 0 138.999800 -140.392300 -116.490000 0.000000 0.000000 -0.999998 -0.999994 0.000000 0.000000 0.000000 1.000000 0.000000 2780.dat
1 0 218.999600 -140.392300 -116.490000 0.000000 0.000000 -0.999998 -0.999994 0.000000 0.000000 0.000000 1.000000 0.000000 2780.dat
1 0 218.999600 -140.392300 -76.489990 0.000000 0.000000 -0.999998 -0.999994 0.000000 0.000000 0.000000 1.000000 0.000000 2780.dat
1 0 138.999800 -140.392300 -76.490000 0.000000 0.000000 -0.999998 -0.999994 0.000000 0.000000 0.000000 1.000000 0.000000 2780.dat
1 0 108.999800 -130.392400 -96.490010 -0.999998 0.000000 0.000000 0.000000 0.999994 0.000000 0.000000 0.000000 -1.000000 2780.dat
1 1 48.999920 -130.392400 -96.490010 -0.999998 0.000000 0.000000 0.000000 0.999994 0.000000 0.000000 0.000000 -1.000000 43093.dat
1 0 248.999600 -130.392400 -96.490010 -0.999998 0.000000 0.000000 0.000000 0.999994 0.000000 0.000000 0.000000 -1.000000 2780.dat
1 3 38.999940 -130.392400 -96.490010 0.000000 0.000000 -0.999998 0.000000 0.999994 0.000000 1.000000 0.000000 0.000000 49283.dat
1 4 178.999600 -130.392400 -135.650000 0.000000 0.000000 -0.999998 0.000000 0.999994 0.000000 1.000000 0.000000 0.000000 3708.dat
1 3 178.999600 -110.392500 -197.070000 0.000000 0.000000 0.999998 0.000000 0.999994 0.000000 -1.000000 0.000000 0.000000 42003.dat
1 1 178.999600 -90.392600 -197.070000 0.999998 0.000000 0.000000 0.000000 0.000000 -0.999994 0.000000 1.000000 0.000000 6558.dat
1 15 157.999700 -150.412300 -197.070000 0.000000 0.999998 0.000000 0.000000 0.000000 0.999994 1.000000 0.000000 0.000000 64683.dat
1 15 198.999600 -150.412200 -197.070000 0.000000 -0.999998 0.000000 0.000000 0.000000 0.999994 -1.000000 0.000000 0.000000 64391.dat
1 1 178.999600 -110.392500 -197.070000 0.999998 0.000000 0.000000 0.000000 0.000000 -0.999994 0.000000 1.000000 0.000000 6558.dat
1 15 178.999700 -130.395200 -4.649960 0.999998 0.000000 0.000000 0.000000 0.999994 0.000000 0.000000 0.000000 1.000000 59443.dat
1 71 178.999600 -130.392400 -156.050000 0.999998 0.000000 0.000000 0.000000 -0.999994 0.000000 0.000000 0.000000 -1.000000 3713.dat
1 71 178.999600 -130.392400 -57.999960 0.999998 0.000000 0.000000 0.000000 -0.999994 0.000000 0.000000 0.000000 -1.000000 3713.dat
1 4 179.999900 -130.000800 20.070070 0.000000 0.000000 -0.999998 0.000000 0.999994 0.000000 1.000000 0.000000 0.000000 32062.dat
1 72 179.999900 -130.000800 30.070080 0.999998 0.000000 0.000000 0.000000 0.999994 0.000000 0.000000 0.000000 1.000000 3648b.dat
1 3 179.999900 -150.000700 44.000070 0.000000 0.000000 0.999998 -0.999994 0.000000 0.000000 0.000000 -1.000000 0.000000 39793.dat
1 71 339.999400 -150.381400 184.000600 0.999998 0.000000 0.000000 0.000000 0.000000 -0.999994 0.000000 1.000000 0.000000 3713.dat
1 0 279.999600 -160.051300 144.000600 0.000000 0.000000 -0.999998 0.999994 0.000000 0.000000 0.000000 -1.000000 0.000000 2780.dat
1 71 39.999920 -170.000100 63.510020 0.000000 1.000000 0.000000 -1.000001 0.000000 0.000000 0.000000 0.000000 1.000000 4519.dat
1 71 39.999920 -170.000100 23.759920 0.000000 1.000001 0.000000 -1.000001 0.000000 0.000000 0.000000 0.000000 1.000000 4519.dat
1 0 278.999500 -150.390300 143.510000 0.000000 0.000000 -0.999998 0.000000 0.999994 0.000000 1.000000 0.000000 0.000000 32524.dat
1 15 418.999100 -150.392600 143.510400 0.999998 0.000000 0.000000 0.000000 0.999994 0.000000 0.000000 0.000000 1.000000 32523.dat
1 0 259.999700 -140.051400 144.000600 0.000000 0.000000 -0.999998 0.999994 0.000000 0.000000 0.000000 -1.000000 0.000000 2780.dat
1 0 338.999300 -160.390200 143.510000 0.000000 0.000000 -0.999998 0.999994 0.000000 0.000000 0.000000 -1.000000 0.000000 2780.dat
1 0 218.999600 -160.390200 143.510100 0.000000 0.000000 -0.999998 0.999994 0.000000 0.000000 0.000000 -1.000000 0.000000 2780.dat
1 0 118.999800 -149.392300 -146.490100 0.000000 0.000000 -0.999998 0.000000 0.999994 0.000000 1.000000 0.000000 0.000000 2780.dat
1 0 238.999600 -149.392300 -146.490100 0.000000 0.000000 -0.999998 0.000000 0.999996 0.000000 1.000000 0.000000 0.000000 2780.dat
1 3 178.999700 -249.391600 -66.489970 0.999998 0.000000 0.000000 0.000000 0.000000 -0.999994 0.000000 1.000000 0.000000 67718-bl.dat
1 14 182.729500 -150.392800 183.510400 0.999998 0.000000 0.000000 0.000000 0.999994 0.000000 0.000000 0.000000 1.000000 60485.dat
1 4 306.839700 -150.001400 184.000400 0.999998 0.000000 0.000000 0.000000 0.999994 0.000000 0.000000 0.000000 1.000000 32062.dat
1 0 121.779700 -100.393100 183.510400 0.000000 0.000000 0.999998 0.000000 0.999994 0.000000 -1.000000 0.000000 0.000000 87408.dat
1 0 236.759400 -100.393100 183.510400 0.000000 0.000000 0.999998 0.000000 0.999994 0.000000 -1.000000 0.000000 0.000000 87408.dat
1 19 161.169600 -150.392800 183.510400 0.000000 0.000000 -0.999998 0.000000 0.999994 0.000000 1.000000 0.000000 0.000000 32198.dat
1 19 254.899400 -150.392800 183.510400 0.000001 0.000000 -0.999998 0.000000 0.999994 0.000000 1.000000 0.000000 0.000001 6589.dat
1 19 103.339700 -150.392800 183.510400 0.000000 0.000000 0.999998 0.000000 0.999994 0.000000 -1.000000 0.000000 0.000000 6589.dat
1 19 322.469700 -150.001400 184.000400 0.000000 0.000000 0.999998 0.000000 0.999994 0.000000 -1.000000 0.000000 0.000000 6589.dat
1 14 116.299700 -150.392800 183.510400 0.000000 0.000000 -0.999998 0.000000 0.999994 0.000000 1.000000 0.000000 0.000000 32123a.dat
1 14 239.139400 -150.392800 183.510400 0.000000 0.000000 -0.999998 0.000000 0.999994 0.000000 1.000000 0.000000 0.000000 32123a.dat
1 15 287.129300 -150.395700 183.510400 0.000000 0.000000 -0.999998 0.000000 0.999994 0.000000 1.000000 0.000000 0.000000 59443.dat
1 0 132.939600 -150.392800 183.510400 0.000000 0.999998 0.000000 0.999994 0.000000 0.000000 0.000000 0.000000 -1.000000 18654.dat
1 14 195.299500 -150.392800 183.510400 0.000000 0.000000 -0.999998 0.000000 0.999994 0.000000 1.000000 0.000000 0.000000 32123a.dat
1 0 180.699500 -150.392800 133.510400 0.000000 0.000000 -0.999998 0.999994 0.000000 0.000000 0.000000 -1.000000 0.000000 87408.dat
1 0 219.979500 -150.392800 183.510400 0.000000 0.999998 0.000000 0.999994 0.000000 0.000000 0.000000 0.000000 -1.000000 18654.dat
1 70 180.699500 -150.392800 143.510400 0.000000 0.000000 -0.999998 0.000000 0.999994 0.000000 1.000000 0.000000 0.000000 4519.dat
1 0 180.699500 -150.392800 121.220400 0.999998 0.000000 0.000000 0.000000 0.999994 0.000000 0.000000 0.000000 1.000000 32498.dat
1 19 180.699500 -150.392800 158.750400 0.999998 0.000000 0.000001 0.000000 0.999994 0.000000 -0.000001 0.000000 1.000000 6589.dat
1 0 259.999600 -170.051200 144.000600 0.000000 0.000000 0.999998 0.000000 -0.999994 0.000000 1.000000 0.000000 0.000000 32526.dat
1 0 160.000000 -180.000500 44.000070 0.000000 0.999998 0.000000 -0.999994 0.000000 0.000000 0.000000 0.000000 1.000000 2780.dat
1 0 199.999800 -180.000500 44.000070 0.000000 0.999998 0.000000 -0.999994 0.000000 0.000000 0.000000 0.000000 1.000000 2780.dat
1 3 178.999700 -249.305200 -66.489960 0.999998 0.000000 0.000000 0.000000 0.000000 -0.999994 0.000000 1.000000 0.000000 67704.dat
1 0 319.999600 -160.051300 144.000600 0.000000 0.000000 -0.999998 0.999994 0.000000 0.000000 0.000000 -1.000000 0.000000 2780.dat
1 0 259.999600 -160.051300 144.000600 0.000000 0.000000 -0.999998 0.999994 0.000000 0.000000 0.000000 -1.000000 0.000000 2780.dat
1 0 178.999600 -170.390100 143.510100 0.000000 0.000000 -0.999998 0.000000 0.999994 0.000000 1.000000 0.000000 0.000000 32316.dat
1 71 179.999900 -190.000400 44.000070 0.000000 0.000000 0.999998 -0.999994 0.000000 0.000000 0.000000 -1.000000 0.000000 14720.dat
1 0 338.999400 -170.392100 3.510020 -0.999998 0.000000 0.000000 0.000000 0.999994 0.000000 0.000000 0.000000 -1.000000 39794.dat
1 0 418.999000 -180.392800 23.510360 -0.000001 -0.999999 0.000000 0.999995 0.000000 0.000000 0.000000 0.000000 1.000000 2780.dat
1 0 418.999100 -170.392400 123.510400 0.999998 0.000000 0.000000 0.000000 0.999994 0.000000 0.000000 0.000000 1.000000 32524.dat
1 0 138.999700 -160.390200 143.510100 0.000000 0.000000 -0.999998 0.999994 0.000000 0.000000 0.000000 -1.000000 0.000000 2780.dat
1 0 78.999850 -150.390300 143.510100 0.000000 0.000000 -0.999998 0.000000 0.999994 0.000000 1.000000 0.000000 0.000000 32524.dat
1 0 19.000160 -160.390200 143.509800 0.000000 0.000000 0.999998 -0.999994 0.000000 0.000000 0.000000 -1.000000 0.000000 2780.dat
1 0 98.999820 -160.390200 143.509800 0.000000 0.000000 0.999998 -0.999994 0.000000 0.000000 0.000000 -1.000000 0.000000 2780.dat
1 0 78.999950 -180.390100 143.509800 0.000000 0.000000 0.999998 -0.999994 -0.000001 0.000000 0.000001 -1.000000 0.000000 2780.dat
1 0 98.999820 -170.390100 143.509800 0.000000 0.000000 -0.999996 0.000000 0.999994 0.000000 0.999999 0.000000 0.000000 32526.dat
1 0 39.000030 -180.390100 143.509800 0.000000 0.000000 0.999998 -0.999994 -0.000001 0.000000 0.000000 -1.000000 0.000000 2780.dat
1 0 158.999700 -180.390100 143.510100 0.000000 0.000000 -0.999998 0.999994 0.000000 0.000000 0.000000 -1.000000 0.000000 2780.dat
1 0 198.999600 -180.390100 143.510100 0.000000 0.000000 -0.999998 0.999994 0.000000 0.000000 0.000000 -1.000000 0.000000 2780.dat
1 0 278.999500 -180.390100 103.510100 0.000000 0.000000 -0.999998 0.999994 0.000000 0.000000 0.000000 -1.000000 0.000000 2780.dat
1 0 398.999200 -180.390100 103.510100 0.000000 0.000000 -0.999998 0.999994 0.000000 0.000000 0.000000 -1.000000 0.000000 2780.dat
1 1 318.999400 -180.390100 -96.489970 0.000000 0.000000 0.999998 -0.999994 0.000000 0.000000 0.000000 -1.000000 0.000000 43093.dat
1 0 418.999100 -180.392400 103.510400 0.000000 -0.999998 0.000000 0.999994 0.000000 0.000000 0.000000 0.000000 1.000000 2780.dat
1 0 418.999100 -180.392400 63.510380 0.000000 -0.999998 0.000000 0.999994 0.000000 0.000000 0.000000 0.000000 1.000000 2780.dat
1 71 19.000160 -140.390300 183.509700 0.000000 0.000002 -0.999999 0.999994 0.000000 0.000000 0.000000 -1.000001 -0.000002 3705.dat
1 0 19.000460 -98.160570 183.509600 0.000002 0.000000 0.999996 0.000000 0.999994 0.000000 -0.999998 0.000000 0.000000 87408.dat
1 0 19.000460 -126.600800 183.509700 -0.716912 -0.697163 0.000000 0.000000 0.000000 -0.999994 0.697165 -0.716911 0.000000 32270.dat
1 71 19.000160 -148.540200 183.509700 0.999999 -0.000002 0.000000 0.000000 0.000000 -0.999994 0.000000 1.000001 0.000000 3713.dat
1 4 51.730200 -148.160300 183.509600 0.999998 0.000000 0.000000 0.000000 0.999994 0.000000 0.000000 0.000000 1.000000 32062.dat
1 19 38.140220 -148.160300 183.509600 0.000000 0.000000 -0.999998 0.000000 0.999994 0.000000 1.000000 0.000000 0.000000 6589.dat
1 15 71.730160 -148.163100 183.509600 0.000000 0.000000 -0.999998 0.000000 0.999994 0.000000 1.000000 0.000000 0.000000 59443.dat
1 1 88.999860 -170.392000 -76.489990 -0.999998 0.000000 0.000000 0.000000 0.999994 0.000000 0.000000 0.000000 -1.000000 43093.dat
1 0 108.999900 -169.392200 -76.490000 -0.999998 0.000000 0.000000 0.000000 0.999994 0.000000 0.000000 0.000000 -1.000000 2780.dat
1 0 140.000000 -170.000500 54.000040 0.000000 0.000000 0.999998 0.000000 0.999994 0.000000 -1.000000 0.000000 0.000000 2780.dat
1 0 -39.999920 -170.000100 -6.000040 0.000000 0.000000 1.000000 0.000000 1.000000 0.000000 -1.000000 0.000000 0.000000 2780.dat
1 0 248.999600 -170.392100 -76.489990 -0.999998 0.000000 0.000000 0.000000 0.999994 0.000000 0.000000 0.000000 -1.000000 2780.dat
1 0 219.999800 -170.000500 54.000060 0.000000 0.000000 0.999998 0.000000 0.999994 0.000000 -1.000000 0.000000 0.000000 2780.dat
1 0 338.999400 -170.392100 -86.490010 -0.000001 0.000000 0.999999 0.000000 0.999994 0.000000 -1.000001 0.000000 -0.000001 2780.dat
1 0 378.999400 -170.392100 -86.490020 -0.000001 0.000000 0.999999 0.000000 0.999994 0.000000 -1.000001 0.000000 -0.000001 2780.dat
1 0 338.999400 -170.392100 93.510090 0.000000 0.000000 -0.999998 0.000000 0.999994 0.000000 1.000000 0.000000 0.000000 2780.dat
1 0 378.999300 -170.392100 93.510100 0.000000 0.000000 -0.999998 0.000000 0.999994 0.000000 1.000000 0.000000 0.000000 2780.dat
1 0 358.999400 -170.392100 -56.489960 -0.000001 0.000000 0.999998 0.000000 0.999994 0.000000 -1.000000 0.000000 -0.000001 39793.dat
1 0 358.999300 -170.392100 63.510060 0.000000 0.000000 -0.999998 0.000000 0.999994 0.000000 1.000000 0.000000 0.000000 39793.dat
1 3 78.999870 -170.392000 -76.489970 0.000000 0.000000 -0.999998 0.000000 0.999994 0.000000 1.000000 0.000000 0.000000 49283.dat
1 71 358.999400 -190.392000 63.510060 0.000000 -0.999998 0.000000 0.000000 0.000000 0.999994 -1.000000 0.000000 0.000000 48989.dat
1 71 358.999400 -190.392000 -56.489980 0.000000 -0.999998 0.000000 0.000000 0.000000 0.999994 -1.000000 0.000000 0.000000 48989.dat
1 0 418.999000 -190.392300 -16.489640 0.000000 0.999998 0.000000 -0.999994 0.000000 0.000000 0.000000 0.000000 1.000000 71710.dat
1 0 40.000040 -190.000000 23.759920 0.000000 1.000000 0.000000 0.000000 0.000000 1.000000 1.000000 0.000000 0.000000 32039.dat
1 0 39.999920 -190.000100 63.510020 0.000000 1.000000 0.000000 0.000000 0.000000 1.000000 1.000000 0.000000 0.000000 32039.dat
1 3 318.999400 -190.390000 -96.489970 0.000000 0.999998 0.000000 0.000000 0.000000 0.999994 1.000000 0.000000 0.000000 49283.dat
1 3 178.999600 -210.389900 143.510100 0.000000 0.000000 0.999998 -0.999994 0.000000 0.000000 0.000000 -1.000000 0.000000 39793.dat
1 0 299.999300 -210.051000 144.000600 0.000000 0.000000 0.999998 -0.999994 0.000000 0.000000 0.000000 -1.000000 0.000000 39793.dat
1 0 338.999400 -190.392000 103.510100 0.000000 0.000000 -0.999998 0.000000 0.999994 0.000000 1.000000 0.000000 0.000000 32524.dat
1 0 59.000000 -210.389900 143.509800 0.000000 0.000000 0.999998 -0.999994 0.000000 0.000000 0.000000 -1.000000 0.000000 39793.dat
1 0 418.999000 -180.392400 -136.489600 -0.000001 0.000000 -0.999998 0.999994 0.000000 -0.000001 0.000000 -1.000000 0.000000 2780.dat
1 15 418.999000 -130.392700 -116.489600 0.000000 -0.999998 0.000000 0.000000 0.000000 -0.999994 1.000000 0.000000 0.000000 64782.dat
1 0 418.999100 -130.392700 -226.489700 0.000000 0.000000 -0.999998 0.000000 -0.999994 0.000000 -1.000000 0.000000 0.000000 2780.dat
1 0 418.999100 -190.392300 -236.489700 0.999998 0.000000 0.000000 0.000000 0.000000 -0.999994 0.000000 1.000000 0.000000 40490.dat
1 0 418.999100 -170.392400 -226.489700 0.000000 0.000000 -0.999998 0.000000 -0.999994 0.000000 -1.000000 0.000000 0.000000 2780.dat
1 0 378.999400 -200.392000 103.510100 0.000000 0.000000 -0.999998 0.999994 0.000000 0.000000 0.000000 -1.000000 0.000000 2780.dat
1 0 338.999400 -200.392000 103.510100 0.000000 0.000000 -0.999998 0.999994 0.000000 0.000000 0.000000 -1.000000 0.000000 2780.dat
1 1 418.999100 -190.392300 -246.489700 0.000000 0.000000 0.999998 0.000000 0.999994 0.000000 -1.000000 0.000000 0.000000 43093.dat
1 0 418.999100 -190.392300 -256.489700 0.999998 0.000000 0.000000 0.000000 0.000000 -0.999994 0.000000 1.000000 0.000000 32140.dat
1 71 79.999950 -230.000100 84.000050 0.000001 0.000000 -1.000000 0.000000 1.000000 0.000000 1.000000 0.000000 0.000001 2393.dat
1 1 258.999600 -209.391800 -76.489990 -0.999998 0.000000 0.000000 0.000000 0.000000 -0.999994 0.000000 -1.000000 0.000000 6558.dat
1 322 358.999400 -250.391600 83.510090 0.000000 0.999998 0.000000 0.999994 0.000000 0.000000 0.000000 0.000000 -1.000000 54675.dat
1 0 120.000000 -190.000300 84.000160 0.000000 0.999998 0.000000 0.000000 0.000000 -0.999994 -1.000000 0.000000 0.000000 60484.dat
1 1 98.999850 -210.391800 -76.489990 0.999998 0.000000 0.000000 0.000000 0.000000 -0.999994 0.000000 1.000000 0.000000 6558.dat
1 70 39.999920 -210.000000 45.400020 0.000000 0.000000 -1.000000 0.000000 1.000000 0.000000 1.000000 0.000000 0.000000 15462.dat
1 0 140.000000 -210.000300 54.000040 0.000000 0.000000 0.999998 0.000000 0.999994 0.000000 -1.000000 0.000000 0.000000 2780.dat
1 0 79.999950 -210.000000 94.000140 0.000000 0.000000 1.000000 0.000000 1.000000 0.000000 -1.000000 0.000000 0.000000 2780.dat
1 0 219.999800 -210.000300 54.000060 0.000000 0.000000 0.999998 0.000000 0.999994 0.000000 -1.000000 0.000000 0.000000 2780.dat
1 0 19.999950 -210.000000 94.000040 0.000000 0.000000 1.000000 0.000000 1.000000 0.000000 -1.000000 0.000000 0.000000 2780.dat
1 0 -0.000010 -210.000000 94.000040 0.000000 0.000000 1.000000 0.000000 1.000000 0.000000 -1.000000 0.000000 0.000000 2780.dat
1 1 39.000030 -210.389900 123.509800 0.000000 -0.999998 0.000000 0.000000 0.000000 0.999994 -1.000000 0.000000 0.000000 6558.dat
1 0 140.000000 -210.000200 114.000100 0.000000 0.000000 -0.999998 0.000000 -0.999994 0.000000 -1.000000 0.000000 0.000000 2780.dat
1 1 158.999700 -210.389900 143.509900 0.000000 -0.999998 0.000000 0.000000 0.000000 0.999994 -1.000000 0.000000 0.000000 6558.dat
1 1 198.999600 -210.389900 143.510100 0.000000 -0.999998 0.000000 0.000000 0.000000 0.999994 -1.000000 0.000000 0.000000 6558.dat
1 0 219.999800 -210.000200 114.000100 0.000000 0.000000 -0.999998 0.000000 -0.999994 0.000000 -1.000000 0.000000 0.000000 2780.dat
1 1 279.999400 -210.051000 144.000600 0.000000 -0.999998 0.000000 0.000000 0.000000 0.999994 -1.000000 0.000000 0.000000 6558.dat
1 1 319.999300 -210.051000 144.000600 0.000000 -0.999998 0.000000 0.000000 0.000000 0.999994 -1.000000 0.000000 0.000000 6558.dat
1 0 358.999400 -210.391900 113.510100 0.000000 0.999998 0.000000 0.000000 0.000000 0.999994 1.000000 0.000000 0.000000 2780.dat
1 1 358.999400 -210.391900 -76.489960 0.000000 0.999998 0.000000 0.000000 0.000000 -0.999994 -1.000000 0.000000 0.000000 6558.dat
1 0 398.999400 -210.391900 -96.489930 0.000000 0.000000 -0.999998 -0.999994 0.000000 0.000000 0.000000 1.000000 0.000000 32316.dat
1 0 358.999400 -290.391500 -76.489960 0.999998 0.000000 0.000000 0.000000 0.000000 0.999994 0.000000 -1.000000 0.000000 32526.dat
1 3 178.999600 -210.389900 163.509900 0.000000 0.000000 -0.999998 0.999994 0.000000 0.000000 0.000000 -1.000000 0.000000 32523.dat
1 15 299.999300 -210.051000 164.000600 0.000000 0.000000 -0.999998 0.999994 0.000000 0.000000 0.000000 -1.000000 0.000000 32523.dat
1 0 39.999920 -210.000000 42.960020 0.000000 0.000000 1.000000 1.000000 0.000000 0.000000 0.000000 1.000000 0.000000 18654.dat
1 71 378.999500 -250.391600 123.510100 -0.999998 0.000000 0.000000 0.000000 0.000000 -0.999994 0.000000 -1.000000 0.000000 14720.dat
1 0 -0.000010 -210.000000 104.000000 0.000000 0.000000 1.000000 -1.000000 0.000000 0.000000 0.000000 -1.000000 0.000000 32526.dat
1 0 179.999900 -210.000300 124.000100 0.000000 0.000000 -0.999998 0.999994 0.000000 0.000000 0.000000 -1.000000 0.000000 32278.dat
1 0 398.999500 -210.391900 133.510100 0.000000 0.999998 0.000000 0.000000 0.000000 0.999994 1.000000 0.000000 0.000000 2780.dat
1 1 438.999300 -210.391900 -116.489900 0.000000 0.000000 0.999998 0.000000 0.999994 0.000000 -1.000000 0.000000 0.000000 6558.dat
1 15 438.999300 -250.391800 -76.489930 0.000000 -0.999999 0.000000 0.000000 0.000000 0.999994 -1.000001 0.000000 0.000000 64179.dat
1 15 438.999400 -250.391600 -136.490200 0.999999 0.000000 0.000000 0.000000 0.000000 0.999994 0.000000 -1.000001 0.000000 32524.dat
1 0 418.999400 -210.391900 143.510100 0.000000 0.000000 -0.999998 0.999994 0.000000 0.000000 0.000000 -1.000000 0.000000 32523.dat
1 1 438.999400 -210.391900 143.510100 -0.000001 0.000000 0.999998 0.000000 0.999994 0.000000 -1.000000 0.000000 -0.000001 6558.dat
1 15 438.999400 -250.391600 83.510300 0.000000 -0.999999 0.000000 0.000000 0.000000 0.999994 -1.000001 0.000000 0.000000 64179.dat
1 71 438.999400 -250.391600 163.510100 0.999998 0.000000 0.000000 0.000000 0.000000 -0.999994 0.000000 1.000000 0.000000 32316.dat
1 0 130.000000 -230.000100 104.000200 0.999998 0.000000 0.000001 0.000000 0.999994 0.000000 -0.000001 0.000000 1.000000 2780.dat
1 0 130.000000 -230.000100 64.000100 0.999998 0.000000 0.000001 0.000000 0.999994 0.000000 -0.000001 0.000000 1.000000 2780.dat
1 0 229.999800 -230.000100 104.000100 -0.999998 0.000000 -0.000001 0.000000 0.999994 0.000000 0.000001 0.000000 -1.000000 2780.dat
1 1 99.999970 -230.000100 84.000140 1.000000 0.000000 0.000000 0.000000 1.000000 0.000000 0.000000 0.000000 1.000000 6558.dat
1 0 438.999400 -230.391800 -146.490300 0.000000 0.000000 -1.000004 0.000000 -0.999998 0.000000 -1.000004 0.000000 0.000000 2780.dat
1 15 438.999000 -250.392000 -176.489700 0.000000 -0.999999 0.000000 0.999994 0.000000 0.000000 0.000000 0.000000 1.000001 71709.dat
1 0 239.999800 -190.000300 84.000070 0.000000 -0.999998 0.000000 0.000000 0.000000 -0.999994 1.000000 0.000000 0.000000 60484.dat
1 0 438.999000 -250.392000 -246.489700 0.000000 0.000000 -0.999998 0.000000 -0.999994 0.000000 -1.000000 0.000000 0.000000 2780.dat
1 0 418.999100 -250.392000 -246.489700 0.000000 0.000000 -0.999998 0.000000 -0.999994 0.000000 -1.000000 0.000000 0.000000 2780.dat
1 0 79.999950 -250.000300 94.000140 0.000000 0.000000 1.000000 0.000000 1.000000 0.000000 -1.000000 0.000000 0.000000 2780.dat
1 71 438.999000 -260.391900 -236.489700 -0.999998 0.000000 0.000000 0.000000 0.000000 0.999994 0.000000 1.000000 0.000000 43857.dat
1 4 307.759500 -250.391600 83.510090 -0.999998 0.000000 0.000000 0.000000 0.999994 0.000000 0.000000 0.000000 -1.000000 32062.dat
1 71 438.999400 -250.391600 121.180500 0.000000 0.000000 0.999999 0.000000 -0.999994 0.000000 1.000001 0.000000 0.000000 4519.dat
1 71 438.999400 -250.391600 43.510240 0.000000 0.000000 0.999999 0.000000 -0.999994 0.000000 1.000001 0.000000 0.000000 4519.dat
1 0 438.999400 -250.391800 -26.489820 0.000000 0.000000 0.999999 0.000000 -0.999994 0.000000 1.000001 0.000000 0.000000 3705.dat
1 14 438.999100 -250.392200 -154.889800 0.000000 0.000000 0.999999 0.000000 -0.999994 0.000000 1.000001 0.000000 0.000000 44294.dat
1 4 438.828700 -250.492100 62.590380 0.507689 -0.861540 0.000000 -0.861535 -0.507686 0.000000 0.000000 0.000000 -1.000001 65413.dat
1 71 297.759600 -250.391600 83.510090 0.000000 0.000000 -0.999998 0.000000 0.999994 0.000000 1.000000 0.000000 0.000000 32498.dat
1 4 438.999100 -250.589700 -56.490200 -0.999999 0.000000 0.000000 0.000000 -0.999994 0.000000 0.000000 0.000000 1.000001 65413.dat
1 71 438.913300 -250.442400 101.590400 0.507689 -0.861540 0.000000 -0.861535 -0.507686 0.000000 0.000000 0.000000 -1.000001 65414.dat
1 0 438.999400 -230.391800 -14.659920 0.000000 0.999999 0.000000 0.000001 0.000000 0.999995 1.000002 0.000000 -0.000001 32039.dat
1 4 438.999300 -220.391900 -14.659980 0.000000 0.000000 0.999999 0.999995 0.000000 0.000000 0.000000 1.000002 0.000000 32062.dat
1 0 458.999000 -208.752000 -14.659880 0.000000 0.000000 0.999999 -0.999995 0.000000 0.000000 0.000000 -1.000002 0.000000 32039.dat
1 0 488.999400 -208.752000 -14.659860 -0.999999 0.000000 0.000000 0.000000 0.999995 0.000000 0.000000 0.000000 -1.000002 3705.dat
1 0 538.999200 -208.751900 -14.659890 0.000000 0.000000 0.999999 0.000000 -0.999995 0.000000 1.000002 0.000000 0.000000 32015.dat
1 4 550.499100 -181.252000 -14.659970 -0.382690 -0.923876 -0.000001 -0.923873 0.382688 0.000000 0.000000 0.000001 -1.000002 32062.dat
1 0 561.979700 -153.535500 -14.659950 0.382690 -0.000001 -0.923876 0.923873 0.000000 0.382688 0.000000 -1.000002 0.000001 25214.dat
1 14 503.535500 -129.326700 -14.659870 -0.923876 0.382690 -0.000001 0.382688 0.923873 0.000000 0.000000 0.000000 -1.000002 32073.dat
1 71 438.999300 -250.491700 -95.490160 -0.999999 0.000000 0.000000 0.000000 -0.999994 0.000000 0.000000 0.000000 1.000001 65414.dat
1 19 453.559100 -241.811700 81.590300 0.000000 -0.507689 -0.861540 0.000000 0.861535 -0.507686 1.000001 0.000000 0.000000 6589.dat
1 19 424.634300 -242.067100 81.590300 0.000000 -0.492272 0.870441 0.000000 -0.870436 -0.492268 1.000001 0.000000 0.000000 6589.dat
1 19 438.999300 -233.491800 -75.490130 0.000000 0.999999 0.000000 0.000000 0.000000 -0.999994 -1.000001 0.000000 0.000000 6589.dat
1 19 438.999300 -250.391600 -60.410040 0.000000 0.999999 0.000000 0.999994 0.000000 0.000000 0.000000 0.000000 -1.000001 6589.dat
1 19 438.999400 -250.391500 66.510240 0.000000 -0.999999 0.000000 0.999994 0.000000 0.000000 0.000000 0.000000 1.000001 6589.dat
1 0 439.001200 -250.391600 23.511820 0.999987 0.000000 0.000000 0.000000 -0.999994 0.000000 0.000000 0.000000 -0.999990 32270.dat
1 19 438.999300 -250.491700 -92.490100 -0.999999 0.000000 0.000000 0.000000 -0.999994 0.000000 0.000000 0.000000 1.000001 6589.dat
1 19 438.999400 -250.491500 98.590400 0.999999 0.000000 0.000000 0.000000 -0.999994 0.000000 0.000000 0.000000 -1.000001 6589.dat
1 0 458.999100 -250.392200 -216.839800 0.000000 0.000000 0.999998 0.000000 -0.999994 0.000000 1.000000 0.000000 0.000000 32039.dat
1 0 458.999200 -250.391600 141.180500 0.000000 0.000000 0.999999 0.000000 -0.999994 0.000000 1.000001 0.000000 0.000000 32039.dat
1 71 438.999400 -250.391600 3.510280 0.999999 0.000000 0.000000 0.000000 -0.999994 0.000000 0.000000 0.000000 -1.000002 3713.dat
1 19 453.464100 -258.541600 -75.490060 0.000000 -0.499999 -0.866025 0.000000 -0.866022 0.499997 -1.000001 0.000000 0.000000 6589.dat
1 0 488.999500 -250.391600 141.180300 0.999999 0.000000 0.000000 0.000000 -0.999994 0.000000 0.000000 0.000000 -1.000001 3705.dat
1 0 489.003500 -250.392200 -216.841000 1.000022 0.000000 0.000000 0.000000 -0.999994 0.000000 0.000000 0.000000 -1.000026 3705.dat
1 0 539.003900 -250.392100 -216.841100 0.000000 0.000000 1.000015 0.000000 -0.999994 0.000000 1.000017 0.000000 0.000000 32015.dat
1 0 538.999600 -250.391600 141.180500 0.000000 0.000000 0.999999 0.000000 -0.999995 0.000000 1.000002 0.000000 0.000000 32015.dat
1 0 558.153000 -204.414400 141.180400 0.382690 0.000000 -0.923876 0.923873 0.000000 0.382688 0.000000 -1.000002 0.000000 3705.dat
1 0 558.157500 -204.414900 -216.841300 0.382698 0.000000 -0.923891 0.923872 0.000000 0.382688 0.000000 -1.000017 0.000000 3705.dat
1 0 577.291900 -158.221100 -216.841200 0.923892 0.000000 -0.382698 -0.382688 0.000000 -0.923873 0.000000 1.000018 0.000000 25214.dat
1 0 577.287700 -158.220600 141.180300 0.382690 0.000000 -0.923876 0.923873 0.000000 0.382688 0.000000 -1.000002 0.000000 25214.dat
1 71 540.337200 -142.913500 -216.841200 0.923892 0.382698 0.000000 -0.382688 0.923873 0.000000 0.000000 0.000000 1.000018 4519.dat
1 4 549.571400 -146.739900 141.180300 -0.923876 0.382688 0.000000 0.382687 0.923872 0.000000 0.000000 0.000000 -1.000001 32062.dat
1 1 539.004000 -250.392100 -226.841000 0.000000 0.000000 0.999998 0.000000 0.999994 0.000000 -1.000000 0.000000 0.000000 43093.dat
1 71 539.004000 -250.392100 -231.841000 0.999998 0.000000 0.000000 0.000000 0.999994 0.000000 0.000000 0.000000 1.000000 32123a.dat
1 19 439.321400 -266.991600 81.590300 0.000000 -0.999962 -0.008901 0.000000 -0.008903 0.999954 -1.000001 0.000000 0.000000 6589.dat
1 0 438.999400 -270.391800 -146.489900 -0.000001 0.000000 -1.000001 0.000000 -0.999998 0.000000 -1.000002 0.000000 0.000001 2780.dat
1 1 438.999000 -270.391800 -216.489700 0.000000 0.999998 0.000000 0.000000 0.000000 -0.999994 -1.000000 0.000000 0.000000 6558.dat
1 1 418.999100 -270.391800 -246.489700 0.000000 0.000000 0.999998 0.000000 0.999994 0.000000 -1.000000 0.000000 0.000000 43093.dat
1 14 418.999100 -270.391800 -251.489700 0.999998 0.000000 0.000000 0.000000 0.999994 0.000000 0.000000 0.000000 1.000000 32123a.dat
1 1 378.999400 -300.391400 63.510100 0.000000 0.000000 0.999998 -0.999994 0.000000 0.000000 0.000000 -1.000000 0.000000 43093.dat
1 1 338.999500 -300.391400 -16.489910 0.000000 0.000000 0.999998 -0.999994 0.000000 0.000000 0.000000 -1.000000 0.000000 43093.dat
1 1 338.999500 -300.391300 -56.489930 0.000000 0.000000 -0.999998 -0.999994 0.000000 0.000000 0.000000 1.000000 0.000000 43093.dat
1 1 438.999500 -290.391300 143.510100 -0.000001 0.000000 0.999998 0.000000 0.999994 0.000000 -1.000000 0.000000 -0.000001 6558.dat
1 1 358.999400 -290.391400 123.510100 0.000001 0.000000 -0.999998 0.000000 0.999994 0.000000 1.000000 0.000000 0.000001 6558.dat
1 0 358.999400 -290.391400 -66.489940 0.000000 0.999998 0.000000 0.000000 0.000000 -0.999994 -1.000000 0.000000 0.000000 2780.dat
1 0 438.999300 -290.391500 -126.490200 0.000000 -0.999999 0.000000 0.000000 0.000000 -0.999994 1.000001 0.000000 0.000000 2780.dat
1 72 438.999400 -322.431500 -76.490040 -0.000001 -0.819152 -0.573578 -0.999994 0.000001 0.000000 0.000000 0.573578 -0.819154 87083.dat
1 0 438.999200 -290.931500 -76.490020 -0.573578 0.819152 -0.000001 0.000000 -0.000001 -0.999994 -0.819155 -0.573578 0.000001 32270.dat
1 0 398.999500 -290.391300 143.510100 0.000000 0.000000 -0.999998 0.999994 0.000000 0.000000 0.000000 -1.000000 0.000000 32316.dat
1 3 338.999500 -310.391600 -56.489930 0.000000 -0.999998 0.000000 0.000000 0.000000 0.999994 -1.000000 0.000000 0.000000 49283.dat
1 0 438.999400 -320.391500 103.510400 0.000000 0.000000 0.999999 0.999994 0.000000 0.000000 0.000000 1.000001 0.000000 2780.dat
1 0 438.999500 -320.391800 63.510420 0.000000 0.000000 0.999999 0.999994 0.000000 0.000000 0.000000 1.000001 0.000000 2780.dat
1 3 338.999500 -310.391700 -16.489910 0.000000 0.999998 0.000000 0.000000 0.000000 0.999994 1.000000 0.000000 0.000000 49283.dat
1 3 378.999400 -310.391700 63.510200 0.000000 0.999998 0.000000 0.000000 0.000000 0.999994 1.000000 0.000000 0.000000 49283.dat
1 0 438.999300 -320.391400 -56.490000 0.000000 0.000000 0.999999 0.999994 0.000000 0.000000 0.000000 1.000001 0.000000 2780.dat
1 0 438.999300 -320.391500 -96.490100 0.000000 0.000000 0.999999 0.999994 0.000000 0.000000 0.000000 1.000001 0.000000 2780.dat
1 1 109.999900 -310.000100 84.000060 0.999998 0.000000 -0.000001 0.000000 0.999994 0.000000 0.000001 0.000000 1.000000 43093.dat
1 1 249.999700 -310.002200 83.999980 -0.999998 0.000000 0.000000 0.000000 -0.999994 0.000000 0.000000 0.000000 1.000000 43093.dat
1 3 239.999700 -310.002200 83.999980 -0.000001 0.000000 0.999998 0.999994 0.000000 0.000001 0.000000 1.000000 0.000000 49283.dat
1 3 119.999900 -310.000100 84.000060 0.000001 -0.000001 -0.999998 -0.999994 0.000000 -0.000001 0.000000 1.000000 -0.000001 49283.dat
1 0 438.999700 -330.392000 -36.489780 0.999999 0.000000 0.000000 0.000000 -0.999994 0.000000 0.000000 0.000000 -1.000001 32278.dat
1 70 438.999400 -310.391600 3.510320 0.000000 0.994521 -0.104529 0.999994 0.000000 0.000000 0.000000 -0.104530 -0.994525 32073.dat
1 0 438.999400 -270.391700 3.510240 -0.104530 0.994521 0.000000 0.000000 0.000000 -0.999994 -0.994524 -0.104530 0.000000 32270.dat
1 71 438.999400 -310.391600 3.510320 -0.999999 0.000000 0.000000 0.000000 0.000000 -0.999994 0.000000 -1.000001 0.000000 48989.dat
1 3 438.999400 -290.391500 3.510260 0.999999 0.000000 0.000000 0.000000 -0.999994 0.000000 0.000000 0.000000 -1.000001 32523.dat
1 19 438.999300 -340.391300 -36.489800 0.000000 -0.512042 -0.858959 -0.999994 0.000000 0.000000 0.000000 0.858962 -0.512043 3749.dat
1 0 438.999700 -349.631400 -76.490020 0.573578 -0.819154 0.000000 0.000001 0.000001 -0.999994 0.819153 0.573577 0.000001 32270.dat
1 19 438.999400 -351.930900 -36.489830 -0.999390 -0.034900 0.000000 0.000000 0.000000 0.999994 -0.034902 0.999393 0.000000 32269.dat
1 0 438.999400 -352.491300 3.510260 0.104529 0.994521 0.000000 0.000000 0.000000 0.999994 0.994525 -0.104530 0.000000 32270.dat
1 0 238.999500 -30.703540 203.510400 0.000000 -0.999998 0.000000 0.999994 0.000000 0.000000 0.000000 0.000000 1.000000 32039.dat
1 70 238.999500 -30.703560 243.510500 0.000000 0.000000 -0.999998 0.000000 0.999994 0.000000 1.000000 0.000000 0.000000 15462.dat
1 0 238.999500 -50.703440 281.510500 0.000000 0.999998 0.000000 0.999994 0.000000 0.000000 0.000000 0.000000 -1.000000 45590.dat
1 71 269.999100 -69.659380 143.297600 0.999998 0.000000 0.000000 0.000000 0.999842 -0.017452 0.000000 0.017452 0.999848 18942.dat
1 0 458.998700 -310.391400 -16.489700 0.000000 -0.999999 0.000000 -0.999994 0.000000 0.000000 0.000000 0.000000 -1.000001 32278.dat
